<svg xmlns="http://www.w3.org/2000/svg" xmlns:xlink="http://www.w3.org/1999/xlink" id="Ebene_1" width="117" height="50" x="0" y="0" version="1.1" viewBox="0 0 117 50" style="enable-background:new 0 0 117 50" xml:space="preserve"><style type="text/css">.st0{fill:#0069b4}</style><path d="M0,1h12.7l6.7,17.3l7-17.3h12.7L25.8,27H13.1L0,1z M56.1,7.1V21h2.7c5.9,0,9.101-2.1,9.101-7	c0-5.4-2.601-6.9-9.3-6.9H56.1L56.1,7.1z M60,27H43.5V1h16.9C72.8,1,80.5,4.9,80.5,13.5C80.4,23.2,72.4,27,60,27L60,27z M117,27	v-6.1H97.6v-4.1h15.9v-6.1H97.6V7.1h18.7V1H85v26H117z" class="st0"/></svg>